Coordinates
version=1
nRows=17
nColumns=40
inDegrees=yes

Units are S.I. units (second, meters, Newtons, ...)
If the header above contains a line with 'inDegrees', this indicates whether rotational values are in degrees (yes) or radians (no).

endheader
time	pelvis_tilt	pelvis_list	pelvis_rotation	pelvis_tx	pelvis_ty	pelvis_tz	hip_flexion_r	hip_adduction_r	hip_rotation_r	knee_angle_r	knee_angle_r_beta	ankle_angle_r	subtalar_angle_r	mtp_angle_r	hip_flexion_l	hip_adduction_l	hip_rotation_l	knee_angle_l	knee_angle_l_beta	ankle_angle_l	subtalar_angle_l	mtp_angle_l	lumbar_extension	lumbar_bending	lumbar_rotation	arm_flex_r	arm_add_r	arm_rot_r	elbow_flex_r	pro_sup_r	wrist_flex_r	wrist_dev_r	arm_flex_l	arm_add_l	arm_rot_l	elbow_flex_l	pro_sup_l	wrist_flex_l	wrist_dev_l
      2.25000000	     -2.39620975	     -0.15423687	     -0.72399038	     -0.26616478	      1.04032100	     -0.98900303	     11.90225519	     -7.40183996	      2.19126754	     74.58173885	      1.30169690	     13.15581857	      0.00000000	      0.00000000	     13.65672529	      1.68590853	     -3.66134753	     23.32784273	      0.40714766	      0.98896717	      0.00000000	      0.00000000	     -1.56860944	     -3.24231664	     -3.39057755	     89.88529273	     -6.52584731	     53.92581071	     48.82412233	     84.78089551	      0.00000000	      0.00000000	     89.91035129	    -18.05648484	     51.12009887	     55.26940313	     81.12118385	      0.00000000	      0.00000000
      2.25500000	     -2.39579845	     -0.10039416	     -0.69439606	     -0.26637646	      1.04020037	     -0.98900667	     11.75093606	     -7.44623751	      2.13177918	     74.77169268	      1.30501222	     13.02882175	      0.00000000	      0.00000000	     13.71985829	      1.72196405	     -3.72650987	     23.41621131	      0.40868999	      0.90874319	      0.00000000	      0.00000000	     -1.62374691	     -3.32181391	     -3.43923013	     89.88547400	     -6.49065488	     53.75963889	     48.90495725	     84.55753580	      0.00000000	      0.00000000	     89.91046530	    -18.04204523	     51.00888256	     55.21544344	     81.99895334	      0.00000000	      0.00000000
      2.26000000	     -2.45078553	     -0.16474895	     -0.68884755	     -0.26650069	      1.03990111	     -0.98896931	     11.65204891	     -7.36227935	      2.07139358	     74.94594256	      1.30805346	     12.91465373	      0.00000000	      0.00000000	     13.86601855	      1.62781252	     -3.75407216	     23.60877999	      0.41205094	      1.03736530	      0.00000000	      0.00000000	     -1.60506861	     -3.26242631	     -3.44976755	     89.88588055	     -6.48836901	     53.57036544	     49.09339072	     84.51124082	      0.00000000	      0.00000000	     89.91098600	    -18.02370388	     50.90285710	     55.19464906	     81.95303127	      0.00000000	      0.00000000
      2.26500000	     -2.52314347	     -0.16496096	     -0.68483506	     -0.26669812	      1.03966309	     -0.98895466	     11.57983485	     -7.35118889	      2.01933054	     75.08840486	      1.31053989	     12.74200243	      0.00000000	      0.00000000	     14.01073262	      1.60134774	     -3.80753584	     23.71622442	      0.41392620	      1.03981860	      0.00000000	      0.00000000	     -1.58371907	     -3.26950973	     -3.44709245	     89.88596910	     -6.43569557	     53.76225358	     48.72177945	     84.94858586	      0.00000000	      0.00000000	     89.91088568	    -18.01417457	     50.98564442	     55.19353419	     80.46585392	      0.00000000	      0.00000000
      2.27000000	     -2.63473193	     -0.14729962	     -0.67289939	     -0.26691590	      1.03930575	     -0.98891527	     11.56865643	     -7.35340102	      1.98471157	     75.27760622	      1.31384208	     12.52768146	      0.00000000	      0.00000000	     14.22977350	      1.59773512	     -3.82345266	     23.90082830	      0.41714815	      1.19286789	      0.00000000	      0.00000000	     -1.50749391	     -3.31234436	     -3.45882310	     89.88564811	     -6.42681094	     53.71974466	     48.70771842	     85.03146711	      0.00000000	      0.00000000	     89.91152313	    -17.97938813	     51.03369136	     55.14541700	     80.28273521	      0.00000000	      0.00000000
      2.27500000	     -2.72086518	     -0.14926952	     -0.69948562	     -0.26714887	      1.03897285	     -0.98882735	     11.52587710	     -7.31041231	      1.99055692	     75.43703482	      1.31662464	     12.33512819	      0.00000000	      0.00000000	     14.40340322	      1.56349627	     -3.90616966	     24.04067793	      0.41958898	      1.22654956	      0.00000000	      0.00000000	     -1.46799410	     -3.32865315	     -3.41147793	     89.88624502	     -6.42199557	     53.68197070	     48.66423276	     84.58240745	      0.00000000	      0.00000000	     89.91180719	    -17.92976804	     50.92470523	     55.05955283	     82.01354990	      0.00000000	      0.00000000
      2.28000000	     -2.79787333	     -0.09209714	     -0.74317761	     -0.26733269	      1.03863147	     -0.98878165	     11.48453602	     -7.34920007	      2.03503064	     75.63823028	      1.32013616	     12.12552053	      0.00000000	      0.00000000	     14.54041905	      1.60180687	     -3.96904704	     24.12463141	      0.42105425	      1.29055855	      0.00000000	      0.00000000	     -1.42812377	     -3.39209528	     -3.42085554	     89.88674219	     -6.33206987	     53.64224129	     48.60775695	     84.92913735	      0.00000000	      0.00000000	     89.91148827	    -18.02601815	     50.91613959	     55.20759145	     80.67770726	      0.00000000	      0.00000000
      2.28500000	     -3.03377037	     -0.27835094	     -0.59463802	     -0.26801454	      1.03806160	     -0.98864537	     11.60783530	     -7.10162602	      1.89261471	     75.82126049	      1.32333064	     11.97513230	      0.00000000	      0.00000000	     14.98581063	      1.40291222	     -3.78003146	     24.45074959	      0.42674608	      1.39039245	      0.00000000	      0.00000000	     -1.25995446	     -3.22941590	     -3.54599463	     89.88643092	     -6.34192705	     53.57278584	     48.62751263	     84.54166287	      0.00000000	      0.00000000	     89.91266923	    -17.92891914	     50.74095100	     55.04834553	     82.01334728	      0.00000000	      0.00000000
      2.29000000	     -3.12219593	     -0.25822079	     -0.54520530	     -0.26856415	      1.03776625	     -0.98861491	     11.58728239	     -7.09922452	      1.85019280	     75.93844478	      1.32537589	     11.59237882	      0.00000000	      0.00000000	     15.22548982	      1.40531990	     -3.80348180	     24.66336873	      0.43045699	      1.39602584	      0.00000000	      0.00000000	     -1.24923196	     -3.26689783	     -3.59484394	     89.88683989	     -6.29322719	     53.45630956	     48.56432554	     84.91282909	      0.00000000	      0.00000000	     89.91305409	    -17.91021414	     50.70358695	     55.05866348	     80.77373452	      0.00000000	      0.00000000
      2.29500000	     -3.14165651	     -0.16660592	     -0.60823931	     -0.26876614	      1.03756489	     -0.98851104	     11.49922266	     -7.17079903	      1.91668737	     76.04408779	      1.32721971	     11.22456673	      0.00000000	      0.00000000	     15.29595691	      1.47068212	     -3.91964351	     24.74073591	      0.43180730	      1.38758292	      0.00000000	      0.00000000	     -1.26947422	     -3.37715195	     -3.50514039	     89.88658947	     -6.30355302	     53.45748990	     48.54058056	     84.56808868	      0.00000000	      0.00000000	     89.91333091	    -17.85417079	     50.55253881	     55.00315768	     82.04176800	      0.00000000	      0.00000000
      2.30000000	     -3.30107467	     -0.20683606	     -0.59362785	     -0.26911027	      1.03703671	     -0.98845464	     11.56899456	     -7.12097089	      1.87258198	     76.20797257	      1.33008004	     10.94411973	      0.00000000	      0.00000000	     15.58098583	      1.40690643	     -3.95125534	     24.93319481	      0.43516634	      1.43473345	      0.00000000	      0.00000000	     -1.14820653	     -3.36353403	     -3.51168992	     89.88715854	     -6.28341835	     53.39401410	     48.46771611	     84.62340840	      0.00000000	      0.00000000	     89.91328469	    -17.80933832	     50.49757922	     54.98998324	     81.91214924	      0.00000000	      0.00000000
      2.30500000	     -3.37170278	     -0.21317179	     -0.63330616	     -0.26901690	      1.03663059	     -0.98838885	     11.48097612	     -7.06817146	      1.92834246	     76.26766115	      1.33112180	     10.48150911	      0.00000000	      0.00000000	     15.71132711	      1.37005920	     -4.06083610	     25.07783316	      0.43769076	      1.58362340	      0.00000000	      0.00000000	     -1.09518738	     -3.36755028	     -3.47378581	     89.88674367	     -6.29021939	     53.40920581	     48.48217858	     84.76412878	      0.00000000	      0.00000000	     89.91327029	    -17.81869811	     50.55754076	     54.96424237	     81.40488210	      0.00000000	      0.00000000
      2.31000000	     -3.49726279	     -0.22509324	     -0.53632981	     -0.26962034	      1.03625927	     -0.98851246	     11.52499822	     -7.07162364	      1.80677344	     76.42181477	      1.33381229	     10.08745160	      0.00000000	      0.00000000	     15.97130075	      1.39909783	     -3.75981707	     25.24983965	      0.44069284	      1.68301085	      0.00000000	      0.00000000	     -1.05134354	     -3.38769924	     -3.47648287	     89.88758259	     -6.51118967	     53.49012837	     48.76925911	     84.22040801	      0.00000000	      0.00000000	     89.91442210	    -17.60334964	     50.51372867	     54.86681049	     79.06561918	      0.00000000	      0.00000000
      2.31500000	     -3.53524043	     -0.18448533	     -0.60694646	     -0.26947419	      1.03578733	     -0.98838287	     11.40552469	     -7.06103588	      1.93063590	     76.49236911	      1.33504369	      9.66892608	      0.00000000	      0.00000000	     16.05948536	      1.38330925	     -4.09440212	     25.40236959	      0.44335499	      1.68944366	      0.00000000	      0.00000000	     -1.02943004	     -3.42367576	     -3.51575240	     89.88774073	     -6.21541677	     53.28572987	     48.40649847	     85.02675570	      0.00000000	      0.00000000	     89.91366026	    -17.82498279	     50.55541352	     54.97750973	     80.53421780	      0.00000000	      0.00000000
      2.32000000	     -3.39674663	      0.04495713	     -0.78810025	     -0.26915091	      1.03572459	     -0.98844657	     11.11917557	     -7.30134197	      2.12898482	     76.52080896	      1.33554006	      9.08593367	      0.00000000	      0.00000000	     15.86374586	      1.58835349	     -4.38665581	     25.34715015	      0.44239123	      1.68540036	      0.00000000	      0.00000000	     -1.16988621	     -3.67945685	     -3.31339195	     89.88735095	     -6.30435393	     53.37402586	     48.49829175	     84.51142299	      0.00000000	      0.00000000	     89.91361930	    -17.77034637	     50.45673934	     54.94279426	     82.13529635	      0.00000000	      0.00000000
      2.32500000	     -3.46633399	      0.04476276	     -0.71727730	     -0.26947780	      1.03538998	     -0.98848412	     11.05937991	     -7.29759597	      2.07197947	     76.57997681	      1.33657274	      8.58301639	      0.00000000	      0.00000000	     16.01938352	      1.60062934	     -4.33928448	     25.47094868	      0.44455192	      1.76420737	      0.00000000	      0.00000000	     -1.16863636	     -3.67375834	     -3.44935754	     89.88784836	     -6.16416266	     53.24363275	     48.41114442	     84.90913228	      0.00000000	      0.00000000	     89.91364730	    -17.87971067	     50.48395410	     55.03354465	     80.47461589	      0.00000000	      0.00000000
      2.33000000	     -3.54730082	      0.08436408	     -0.74829639	     -0.26977900	      1.03500375	     -0.98847092	     11.05866567	     -7.30699476	      2.15826794	     76.67158021	      1.33817152	      8.04342277	      0.00000000	      0.00000000	     16.19338890	      1.63698037	     -4.33585365	     25.61986020	      0.44715091	      1.82360898	      0.00000000	      0.00000000	     -1.13200509	     -3.72896990	     -3.43840122	     89.88768806	     -6.13975903	     53.26127230	     48.39444578	     84.81348679	      0.00000000	      0.00000000	     89.91400079	    -17.85327185	     50.29286659	     54.96184150	     81.34726523	      0.00000000	      0.00000000
